STARTFONT 2.1
COMMENT
COMMENT Converted from OpenType font "Q:\font stuff\winfont\Astute Caps.ttf" by "otf2bdf 3.0".
COMMENT
FONT -FreeType-Astute Caps-Medium-R-Normal--50-500-72-72-P-108-ISO10646-1
SIZE 50 72 72
FONTBOUNDINGBOX 62 52 -4 -8
STARTPROPERTIES 19
FOUNDRY "FreeType"
FAMILY_NAME "Astute Caps"
WEIGHT_NAME "Medium"
SLANT "R"
SETWIDTH_NAME "Normal"
ADD_STYLE_NAME ""
PIXEL_SIZE 50
POINT_SIZE 500
RESOLUTION_X 72
RESOLUTION_Y 72
SPACING "P"
AVERAGE_WIDTH 108
CHARSET_REGISTRY "ISO10646"
CHARSET_ENCODING "1"
FONT_ASCENT 35
FONT_DESCENT 1
COPYRIGHT "From the WSI-FONTS Collection.  Copyright (c)1992 W.S.I.  All Rights Reserved.  Redistribution strictly prohibited."
_OTF_FONTFILE "Q:\font stuff\winfont\Astute Caps.ttf"
_OTF_PSNAME "AstuteCaps"
ENDPROPERTIES
CHARS 226
STARTCHAR 0020
ENCODING 32
SWIDTH 140 0
DWIDTH 7 0
BBX 0 0 0 0
BITMAP
ENDCHAR
STARTCHAR 0021
ENCODING 33
SWIDTH 140 0
DWIDTH 7 0
BBX 4 34 1 0
BITMAP
60
60
60
60
60
60
60
60
60
60
60
60
60
60
60
60
60
60
60
60
60
60
60
60
60
60
60
60
60
60
00
60
F0
60
ENDCHAR
STARTCHAR 0022
ENCODING 34
SWIDTH 220 0
DWIDTH 11 0
BBX 6 9 2 24
BITMAP
CC
CC
CC
CC
CC
CC
CC
CC
CC
ENDCHAR
STARTCHAR 0023
ENCODING 35
SWIDTH 240 0
DWIDTH 12 0
BBX 11 34 0 0
BITMAP
18C0
18C0
18C0
18C0
18C0
18C0
30C0
30C0
3180
3180
7FE0
7FE0
3180
3180
3180
3180
3180
6180
FFC0
FFC0
6180
6300
6300
6300
6300
6300
6300
6300
6300
6300
C300
C300
C300
C200
ENDCHAR
STARTCHAR 0024
ENCODING 36
SWIDTH 240 0
DWIDTH 12 0
BBX 10 38 1 -2
BITMAP
0C00
1F00
7F80
6DC0
CCC0
CCC0
CCC0
CCC0
CCC0
CC00
CC00
CC00
CC00
CC00
CC00
CC00
CC00
CC00
CC00
CC00
EC00
7F00
1F80
0DC0
0CC0
0CC0
0CC0
0CC0
CCC0
CCC0
CCC0
CCC0
CCC0
ECC0
7F80
3F00
0C00
0800
ENDCHAR
STARTCHAR 0025
ENCODING 37
SWIDTH 500 0
DWIDTH 25 0
BBX 19 35 3 0
BITMAP
780C00
CC0C00
CC0C00
CC0C00
CC1800
CC1800
CC1800
CC1800
CC1000
CC3000
CC3000
CC3000
CC3000
CC6000
CC61C0
CC67E0
CC6660
CC6660
CCC660
FCC660
78C660
00C660
008660
018660
018660
018660
018660
030660
030660
030660
030660
030660
060660
060660
0603C0
ENDCHAR
STARTCHAR 0026
ENCODING 38
SWIDTH 240 0
DWIDTH 12 0
BBX 11 35 1 0
BITMAP
3F00
7F80
E0C0
C0C0
C0C0
C0C0
C0C0
C0C0
C000
C000
C000
C000
C000
C000
C000
C000
E000
7F00
7F00
E000
C000
C000
C000
C000
C7E0
C7E0
C0C0
C0C0
C0C0
C0C0
C0C0
C0C0
E1C0
7F80
3F00
ENDCHAR
STARTCHAR 0027
ENCODING 39
SWIDTH 140 0
DWIDTH 7 0
BBX 2 9 2 24
BITMAP
C0
C0
C0
C0
C0
C0
C0
C0
C0
ENDCHAR
STARTCHAR 0028
ENCODING 40
SWIDTH 140 0
DWIDTH 7 0
BBX 6 34 1 0
BITMAP
0C
0C
1C
18
38
30
30
70
70
60
60
60
E0
C0
C0
C0
C0
C0
C0
C0
C0
C0
60
60
60
70
30
30
38
18
18
1C
0C
04
ENDCHAR
STARTCHAR 0029
ENCODING 41
SWIDTH 140 0
DWIDTH 7 0
BBX 6 34 0 0
BITMAP
C0
C0
E0
60
70
70
30
30
38
18
18
18
1C
0C
0C
0C
0C
0C
0C
0C
0C
0C
18
18
18
38
30
30
70
60
60
E0
C0
80
ENDCHAR
STARTCHAR 002A
ENCODING 42
SWIDTH 240 0
DWIDTH 12 0
BBX 12 10 0 24
BITMAP
0600
0600
0600
FFF0
7FE0
0F00
0F00
1980
39C0
30C0
ENDCHAR
STARTCHAR 002B
ENCODING 43
SWIDTH 500 0
DWIDTH 25 0
BBX 23 23 1 1
BITMAP
001800
001800
001800
001800
001800
001800
001800
001800
001800
001800
FFFFFE
FFFFFE
001800
001800
001800
001800
001800
001800
001800
001800
001800
001800
001800
ENDCHAR
STARTCHAR 002C
ENCODING 44
SWIDTH 140 0
DWIDTH 7 0
BBX 5 8 1 -1
BITMAP
18
38
30
70
60
E0
C0
C0
ENDCHAR
STARTCHAR 002D
ENCODING 45
SWIDTH 140 0
DWIDTH 7 0
BBX 5 2 1 13
BITMAP
F8
F8
ENDCHAR
STARTCHAR 002E
ENCODING 46
SWIDTH 140 0
DWIDTH 7 0
BBX 3 3 2 0
BITMAP
E0
E0
E0
ENDCHAR
STARTCHAR 002F
ENCODING 47
SWIDTH 140 0
DWIDTH 7 0
BBX 6 34 0 0
BITMAP
0C
0C
0C
0C
0C
18
18
18
18
18
18
18
18
30
30
30
30
30
30
30
30
60
60
60
60
60
60
60
60
C0
C0
C0
C0
C0
ENDCHAR
STARTCHAR 0030
ENCODING 48
SWIDTH 240 0
DWIDTH 12 0
BBX 10 35 1 0
BITMAP
3F00
7F80
E180
C0C0
C0C0
C0C0
C0C0
C0C0
C0C0
C0C0
C0C0
C0C0
C0C0
C0C0
C0C0
C0C0
C0C0
C0C0
C0C0
C0C0
C0C0
C0C0
C0C0
C0C0
C0C0
C0C0
C0C0
C0C0
C0C0
C0C0
C0C0
C0C0
E1C0
7F80
3F00
ENDCHAR
STARTCHAR 0031
ENCODING 49
SWIDTH 120 0
DWIDTH 6 0
BBX 2 34 2 0
BITMAP
C0
C0
C0
C0
C0
C0
C0
C0
C0
C0
C0
C0
C0
C0
C0
C0
C0
C0
C0
C0
C0
C0
C0
C0
C0
C0
C0
C0
C0
C0
C0
C0
C0
C0
ENDCHAR
STARTCHAR 0032
ENCODING 50
SWIDTH 240 0
DWIDTH 12 0
BBX 9 35 2 0
BITMAP
3E00
7F00
C180
C180
C180
C180
C180
C180
0180
0180
0180
0180
0180
0180
0180
0180
0180
0180
0180
0180
0300
1F00
7C00
E000
C000
C000
C000
C000
C000
C000
C000
C000
C000
FF80
FF80
ENDCHAR
STARTCHAR 0033
ENCODING 51
SWIDTH 240 0
DWIDTH 12 0
BBX 10 35 1 0
BITMAP
3F00
7F80
C1C0
C0C0
C0C0
C0C0
C0C0
C0C0
80C0
00C0
00C0
00C0
00C0
00C0
00C0
00C0
01C0
FF80
FF80
01C0
00C0
00C0
00C0
00C0
00C0
00C0
00C0
C0C0
C0C0
C0C0
C0C0
C0C0
E1C0
7F80
3F00
ENDCHAR
STARTCHAR 0034
ENCODING 52
SWIDTH 240 0
DWIDTH 12 0
BBX 11 34 1 0
BITMAP
0D80
0D80
0D80
0D80
0D80
1D80
1980
1980
1980
1980
3980
3180
3180
3180
3180
7180
6180
6180
6180
6180
6180
E180
FFE0
FFE0
0180
0180
0180
0180
0180
0180
0180
0180
0180
0180
ENDCHAR
STARTCHAR 0035
ENCODING 53
SWIDTH 240 0
DWIDTH 12 0
BBX 9 34 2 0
BITMAP
FF80
FF80
C000
C000
C000
C000
C000
C000
C000
C000
C000
C000
FE00
FF00
0380
0180
0180
0180
0180
0180
0180
0180
0180
0180
0180
0180
C180
C180
C180
C180
C180
C180
6300
3E00
ENDCHAR
STARTCHAR 0036
ENCODING 54
SWIDTH 240 0
DWIDTH 12 0
BBX 10 35 1 0
BITMAP
3F00
7F80
E1C0
C0C0
C0C0
C0C0
C0C0
C0C0
C000
C000
C000
C000
C000
FE00
FF80
E180
C0C0
C0C0
C0C0
C0C0
C0C0
C0C0
C0C0
C0C0
C0C0
C0C0
C0C0
C0C0
C0C0
C0C0
C0C0
C0C0
E1C0
7F80
3F00
ENDCHAR
STARTCHAR 0037
ENCODING 55
SWIDTH 240 0
DWIDTH 12 0
BBX 9 34 2 0
BITMAP
FF80
FF80
0180
0380
0300
0300
0300
0300
0600
0600
0600
0600
0600
0C00
0C00
0C00
0C00
1C00
1800
1800
1800
1800
3000
3000
3000
3000
7000
6000
6000
6000
6000
E000
C000
C000
ENDCHAR
STARTCHAR 0038
ENCODING 56
SWIDTH 240 0
DWIDTH 12 0
BBX 10 35 1 0
BITMAP
3F00
7F80
E1C0
C0C0
C0C0
C0C0
C0C0
C0C0
C0C0
C0C0
C0C0
C0C0
C0C0
C0C0
C0C0
C0C0
E1C0
7F80
7F80
E1C0
C0C0
C0C0
C0C0
C0C0
C0C0
C0C0
C0C0
C0C0
C0C0
C0C0
C0C0
C0C0
C0C0
6180
3F00
ENDCHAR
STARTCHAR 0039
ENCODING 57
SWIDTH 240 0
DWIDTH 12 0
BBX 10 35 1 0
BITMAP
3F00
7F80
C0C0
C0C0
C0C0
C0C0
C0C0
C0C0
C0C0
C0C0
C0C0
C0C0
C0C0
C0C0
C0C0
C0C0
C0C0
C0C0
C0C0
E1C0
7FC0
3FC0
00C0
00C0
00C0
00C0
00C0
C0C0
C0C0
C0C0
C0C0
C0C0
E1C0
7F80
3F00
ENDCHAR
STARTCHAR 003A
ENCODING 58
SWIDTH 140 0
DWIDTH 7 0
BBX 3 21 2 0
BITMAP
40
E0
E0
00
00
00
00
00
00
00
00
00
00
00
00
00
00
00
C0
E0
E0
ENDCHAR
STARTCHAR 003B
ENCODING 59
SWIDTH 140 0
DWIDTH 7 0
BBX 5 23 1 -2
BITMAP
20
70
70
00
00
00
00
00
00
00
00
00
00
00
00
18
38
30
70
60
E0
C0
C0
ENDCHAR
STARTCHAR 003C
ENCODING 60
SWIDTH 280 0
DWIDTH 14 0
BBX 12 18 1 2
BITMAP
0030
0070
00E0
01C0
0380
0F00
1C00
3800
7000
E000
7000
3800
0E00
0700
0380
01C0
00E0
0070
ENDCHAR
STARTCHAR 003D
ENCODING 61
SWIDTH 500 0
DWIDTH 25 0
BBX 23 9 1 7
BITMAP
FFFFFE
FFFFFE
000000
000000
000000
000000
000000
FFFFFE
FFFFFE
ENDCHAR
STARTCHAR 003E
ENCODING 62
SWIDTH 280 0
DWIDTH 14 0
BBX 12 18 1 2
BITMAP
C000
E000
7000
3800
1C00
0F00
0780
01C0
00E0
0070
00E0
01C0
0780
0E00
1C00
3800
7000
E000
ENDCHAR
STARTCHAR 003F
ENCODING 63
SWIDTH 220 0
DWIDTH 11 0
BBX 9 35 1 0
BITMAP
3E00
7F00
C180
C180
C180
C180
C180
C180
0180
0180
0180
0180
0180
0180
0180
0180
0180
0180
0180
0180
0180
0180
0180
0180
0F80
0F00
0C00
0C00
0C00
0C00
0C00
0000
0C00
1C00
0C00
ENDCHAR
STARTCHAR 0040
ENCODING 64
SWIDTH 560 0
DWIDTH 28 0
BBX 24 32 2 0
BITMAP
03FFC0
0FFFF0
3C003C
30001C
60000E
E00007
C00003
C07F03
C0FF03
C0C303
C18303
C18303
C18303
C18303
C18303
C18303
C18303
C18303
C18303
C18303
C18303
C18303
C18303
C18303
C18303
C18303
C18303
C18303
C18303
61C786
78EFFE
187CF8
ENDCHAR
STARTCHAR 0041
ENCODING 65
SWIDTH 260 0
DWIDTH 13 0
BBX 12 35 0 0
BITMAP
0FC0
1FE0
3030
3030
3030
3030
3030
3030
3030
3030
3030
3030
3030
3030
3030
3030
3030
3030
3030
3030
FFF0
FFF0
3030
3030
3030
3030
3030
3030
3030
3030
3030
3030
3030
3030
3030
ENDCHAR
STARTCHAR 0042
ENCODING 66
SWIDTH 260 0
DWIDTH 13 0
BBX 12 34 0 0
BITMAP
3FC0
3FE0
3070
3030
3030
3030
3030
3030
3030
3030
3030
3030
3030
3030
3030
3030
3030
3030
3070
FFE0
FFE0
3070
3030
3030
3030
3030
3030
3030
3030
3030
3030
3070
3FE0
3FC0
ENDCHAR
STARTCHAR 0043
ENCODING 67
SWIDTH 240 0
DWIDTH 12 0
BBX 10 35 1 0
BITMAP
3F00
7F80
E1C0
C0C0
C0C0
C0C0
C0C0
C0C0
C0C0
C000
C000
C000
C000
C000
C000
C000
C000
C000
C000
C000
C000
C000
C000
C000
C000
C000
C0C0
C0C0
C0C0
C0C0
C0C0
C0C0
E1C0
7F80
3F00
ENDCHAR
STARTCHAR 0044
ENCODING 68
SWIDTH 240 0
DWIDTH 12 0
BBX 10 34 1 0
BITMAP
FF00
FF80
C1C0
C0C0
C0C0
C0C0
C0C0
C0C0
C0C0
C0C0
C0C0
C0C0
C0C0
C0C0
C0C0
C0C0
C0C0
C0C0
C0C0
C0C0
C0C0
C0C0
C0C0
C0C0
C0C0
C0C0
C0C0
C0C0
C0C0
C0C0
C0C0
C1C0
FF80
FF00
ENDCHAR
STARTCHAR 0045
ENCODING 69
SWIDTH 240 0
DWIDTH 12 0
BBX 11 34 0 0
BITMAP
3FE0
3FE0
3000
3000
3000
3000
3000
3000
3000
3000
3000
3000
3000
3000
3000
3000
3000
3000
3000
FFE0
FFE0
3000
3000
3000
3000
3000
3000
3000
3000
3000
3000
3000
3FE0
3FE0
ENDCHAR
STARTCHAR 0046
ENCODING 70
SWIDTH 240 0
DWIDTH 12 0
BBX 11 34 0 0
BITMAP
3FE0
3FE0
3000
3000
3000
3000
3000
3000
3000
3000
3000
3000
3000
3000
3000
3000
3000
3000
3000
FFE0
FFE0
3000
3000
3000
3000
3000
3000
3000
3000
3000
3000
3000
3000
3000
ENDCHAR
STARTCHAR 0047
ENCODING 71
SWIDTH 240 0
DWIDTH 12 0
BBX 10 35 1 0
BITMAP
3F00
7F80
E180
C0C0
C0C0
C0C0
C0C0
C0C0
C0C0
C000
C000
C000
C000
C000
C000
C000
C000
C000
C000
C000
C7C0
C7C0
C0C0
C0C0
C0C0
C0C0
C0C0
C0C0
C0C0
C0C0
C0C0
C0C0
E1C0
7F80
3F00
ENDCHAR
STARTCHAR 0048
ENCODING 72
SWIDTH 260 0
DWIDTH 13 0
BBX 11 34 0 0
BITMAP
3060
3060
3060
3060
3060
3060
3060
3060
3060
3060
3060
3060
3060
3060
3060
3060
3060
3060
3060
FFE0
FFE0
3060
3060
3060
3060
3060
3060
3060
3060
3060
3060
3060
3060
3060
ENDCHAR
STARTCHAR 0049
ENCODING 73
SWIDTH 80 0
DWIDTH 4 0
BBX 2 34 1 0
BITMAP
C0
C0
C0
C0
C0
C0
C0
C0
C0
C0
C0
C0
C0
C0
C0
C0
C0
C0
C0
C0
C0
C0
C0
C0
C0
C0
C0
C0
C0
C0
C0
C0
C0
C0
ENDCHAR
STARTCHAR 004A
ENCODING 74
SWIDTH 220 0
DWIDTH 11 0
BBX 9 34 0 0
BITMAP
0180
0180
0180
0180
0180
0180
0180
0180
0180
0180
0180
0180
0180
0180
0180
0180
0180
0180
0180
0180
0180
0180
0180
0180
0180
0180
C180
C180
C180
C180
C180
E380
7F00
3E00
ENDCHAR
STARTCHAR 004B
ENCODING 75
SWIDTH 280 0
DWIDTH 14 0
BBX 15 34 0 0
BITMAP
3030
3030
3030
3030
3030
3030
3030
3030
3030
3030
3030
3030
3030
3030
3030
3030
3030
3030
3070
FFE0
FFE0
3070
3030
3030
3030
3030
3030
3030
3030
3030
3030
3038
301E
300E
ENDCHAR
STARTCHAR 004C
ENCODING 76
SWIDTH 200 0
DWIDTH 10 0
BBX 9 34 1 0
BITMAP
C000
C000
C000
C000
C000
C000
C000
C000
C000
C000
C000
C000
C000
C000
C000
C000
C000
C000
C000
C000
C000
C000
C000
C000
C000
C000
C000
C000
C000
C000
C000
C000
FF80
FF80
ENDCHAR
STARTCHAR 004D
ENCODING 77
SWIDTH 380 0
DWIDTH 19 0
BBX 17 35 1 0
BITMAP
3F3E00
7FFF00
E1E380
C0C180
C0C180
C0C180
C0C180
C0C180
C0C180
C0C180
C0C180
C0C180
C0C180
C0C180
C0C180
C0C180
C0C180
C0C180
C0C180
C0C180
C0C180
C0C180
C0C180
C0C180
C0C180
C0C180
C0C180
C0C180
C0C180
C0C180
C0C180
C0C180
C0C180
C0C180
C0C180
ENDCHAR
STARTCHAR 004E
ENCODING 78
SWIDTH 240 0
DWIDTH 12 0
BBX 10 35 1 0
BITMAP
0F00
FF80
E1C0
C0C0
C0C0
C0C0
C0C0
C0C0
C0C0
C0C0
C0C0
C0C0
C0C0
C0C0
C0C0
C0C0
C0C0
C0C0
C0C0
C0C0
C0C0
C0C0
C0C0
C0C0
C0C0
C0C0
C0C0
C0C0
C0C0
C0C0
C0C0
C0C0
C0C0
C0C0
C0C0
ENDCHAR
STARTCHAR 004F
ENCODING 79
SWIDTH 240 0
DWIDTH 12 0
BBX 10 35 1 0
BITMAP
3E00
7F80
C080
C0C0
C0C0
C0C0
C0C0
C0C0
C0C0
C0C0
C0C0
C0C0
C0C0
C0C0
C0C0
C0C0
C0C0
C0C0
C0C0
C0C0
C0C0
C0C0
C0C0
C0C0
C0C0
C0C0
C0C0
C0C0
C0C0
C0C0
C0C0
C0C0
E1C0
7F80
3F00
ENDCHAR
STARTCHAR 0050
ENCODING 80
SWIDTH 240 0
DWIDTH 12 0
BBX 11 34 0 0
BITMAP
3F80
3FC0
30E0
3060
3060
3060
3060
3060
3060
3060
3060
3060
3060
3060
3060
3060
3060
3060
30E0
FFC0
FF80
3000
3000
3000
3000
3000
3000
3000
3000
3000
3000
3000
3000
3000
ENDCHAR
STARTCHAR 0051
ENCODING 81
SWIDTH 240 0
DWIDTH 12 0
BBX 11 35 1 0
BITMAP
3E00
7F80
E1C0
C0C0
C0C0
C0C0
C0C0
C0C0
C0C0
C0C0
C0C0
C0C0
C0C0
C0C0
C0C0
C0C0
C0C0
C0C0
C0C0
C0C0
C0C0
C0C0
C0C0
C0C0
C0C0
C0C0
C0C0
C0C0
C0C0
C0C0
C4C0
CEC0
C3C0
61E0
3FE0
ENDCHAR
STARTCHAR 0052
ENCODING 82
SWIDTH 280 0
DWIDTH 14 0
BBX 15 34 0 0
BITMAP
3FC0
3FE0
3070
3030
3030
3030
3030
3030
3030
3030
3030
3030
3030
3030
3030
3030
3030
3030
3070
FFE0
FFE0
3070
3030
3030
3030
3030
3030
3030
3030
3030
3030
3038
301C
300E
ENDCHAR
STARTCHAR 0053
ENCODING 83
SWIDTH 240 0
DWIDTH 12 0
BBX 10 35 1 0
BITMAP
3E00
7F80
E180
C0C0
C0C0
C0C0
C0C0
C0C0
C000
C000
C000
C000
C000
C000
C000
C000
C000
C000
E000
7C00
3F80
0380
00C0
00C0
00C0
00C0
C0C0
C0C0
C0C0
C0C0
C0C0
C0C0
E1C0
7F80
3F00
ENDCHAR
STARTCHAR 0054
ENCODING 84
SWIDTH 180 0
DWIDTH 9 0
BBX 8 34 1 0
BITMAP
FF
FF
18
18
18
18
18
18
18
18
18
18
18
18
18
18
18
18
18
18
18
18
18
18
18
18
18
18
18
18
18
18
18
18
ENDCHAR
STARTCHAR 0055
ENCODING 85
SWIDTH 240 0
DWIDTH 12 0
BBX 9 34 1 0
BITMAP
C180
C180
C180
C180
C180
C180
C180
C180
C180
C180
C180
C180
C180
C180
C180
C180
C180
C180
C180
C180
C180
C180
C180
C180
C180
C180
C180
C180
C180
C180
C180
E380
7F00
3E00
ENDCHAR
STARTCHAR 0056
ENCODING 86
SWIDTH 220 0
DWIDTH 11 0
BBX 11 34 0 0
BITMAP
C060
C060
C060
C060
C0E0
60C0
60C0
60C0
60C0
60C0
60C0
60C0
71C0
3180
3180
3180
3180
3180
3180
3180
1B00
1B00
1B00
1B00
1B00
1B00
1B00
1F00
0E00
0E00
0E00
0E00
0E00
0400
ENDCHAR
STARTCHAR 0057
ENCODING 87
SWIDTH 380 0
DWIDTH 19 0
BBX 17 34 1 0
BITMAP
C0C180
C0C180
C0C180
C0C180
C0C180
C0C180
C0C180
C0C180
C0C180
C0C180
C0C180
C0C180
C0C180
C0C180
C0C180
C0C180
C0C180
C0C180
C0C180
C0C180
C0C180
C0C180
C0C180
C0C180
C0C180
C0C180
C0C180
C0C180
C0C180
C0C180
C0C180
E1E380
7FFF00
3E3E00
ENDCHAR
STARTCHAR 0058
ENCODING 88
SWIDTH 220 0
DWIDTH 11 0
BBX 10 34 0 0
BITMAP
C0C0
C0C0
C0C0
C0C0
6180
6180
6180
6180
3300
3300
3300
3300
1E00
1E00
1E00
1E00
0C00
0C00
1E00
1E00
1E00
1A00
3300
3300
3300
3100
6180
6180
6180
6180
C0C0
C0C0
C0C0
C0C0
ENDCHAR
STARTCHAR 0059
ENCODING 89
SWIDTH 240 0
DWIDTH 12 0
BBX 9 34 1 0
BITMAP
C180
C180
C180
C180
C180
C180
C180
C180
C180
C180
C180
C180
C180
C180
C180
C180
C180
C180
6380
7F80
0180
0180
0180
0180
0180
0180
C180
C180
C180
C180
C180
E380
7F00
3E00
ENDCHAR
STARTCHAR 005A
ENCODING 90
SWIDTH 200 0
DWIDTH 10 0
BBX 9 34 0 0
BITMAP
FF00
FF80
0180
0300
0300
0300
0300
0700
0600
0600
0600
0600
0C00
0C00
0C00
0C00
0C00
1800
1800
1800
1800
1800
3000
3000
3000
3000
7000
6000
6000
6000
6000
C000
FF80
7F80
ENDCHAR
STARTCHAR 005B
ENCODING 91
SWIDTH 140 0
DWIDTH 7 0
BBX 4 34 2 0
BITMAP
F0
F0
C0
C0
C0
C0
C0
C0
C0
C0
C0
C0
C0
C0
C0
C0
C0
C0
C0
C0
C0
C0
C0
C0
C0
C0
C0
C0
C0
C0
C0
C0
F0
F0
ENDCHAR
STARTCHAR 005C
ENCODING 92
SWIDTH 140 0
DWIDTH 7 0
BBX 6 34 0 0
BITMAP
C0
C0
C0
C0
C0
60
60
60
60
60
60
60
60
30
30
30
30
30
30
30
30
18
18
18
18
18
18
18
18
0C
0C
0C
0C
0C
ENDCHAR
STARTCHAR 005D
ENCODING 93
SWIDTH 140 0
DWIDTH 7 0
BBX 4 34 1 0
BITMAP
F0
F0
30
30
30
30
30
30
30
30
30
30
30
30
30
30
30
30
30
30
30
30
30
30
30
30
30
30
30
30
30
30
F0
F0
ENDCHAR
STARTCHAR 005E
ENCODING 94
SWIDTH 400 0
DWIDTH 20 0
BBX 19 12 0 21
BITMAP
00E000
01F000
01B800
031800
071C00
0E0E00
0C0E00
1C0700
380380
380380
7001C0
E000E0
ENDCHAR
STARTCHAR 005F
ENCODING 95
SWIDTH 380 0
DWIDTH 19 0
BBX 19 2 0 -4
BITMAP
FFFFE0
FFFFE0
ENDCHAR
STARTCHAR 0060
ENCODING 96
SWIDTH 220 0
DWIDTH 11 0
BBX 7 5 1 37
BITMAP
C0
E0
38
1C
0E
ENDCHAR
STARTCHAR 0061
ENCODING 97
SWIDTH 260 0
DWIDTH 13 0
BBX 12 35 0 0
BITMAP
0FC0
1FE0
3030
3030
3030
3030
3030
3030
3030
3030
3030
3030
3030
3030
3030
3030
3030
3030
3030
3030
FFF0
FFF0
3030
3030
3030
3030
3030
3030
3030
3030
3030
3030
3030
3030
3030
ENDCHAR
STARTCHAR 0062
ENCODING 98
SWIDTH 260 0
DWIDTH 13 0
BBX 12 34 0 0
BITMAP
3FC0
3FE0
3070
3030
3030
3030
3030
3030
3030
3030
3030
3030
3030
3030
3030
3030
3030
3030
3070
FFE0
FFE0
3070
3030
3030
3030
3030
3030
3030
3030
3030
3030
3070
3FE0
3FC0
ENDCHAR
STARTCHAR 0063
ENCODING 99
SWIDTH 240 0
DWIDTH 12 0
BBX 10 35 1 0
BITMAP
3F00
7F80
E1C0
C0C0
C0C0
C0C0
C0C0
C0C0
C0C0
C000
C000
C000
C000
C000
C000
C000
C000
C000
C000
C000
C000
C000
C000
C000
C000
C000
C0C0
C0C0
C0C0
C0C0
C0C0
C0C0
E1C0
7F80
3F00
ENDCHAR
STARTCHAR 0064
ENCODING 100
SWIDTH 240 0
DWIDTH 12 0
BBX 10 34 1 0
BITMAP
FF00
FF80
C1C0
C0C0
C0C0
C0C0
C0C0
C0C0
C0C0
C0C0
C0C0
C0C0
C0C0
C0C0
C0C0
C0C0
C0C0
C0C0
C0C0
C0C0
C0C0
C0C0
C0C0
C0C0
C0C0
C0C0
C0C0
C0C0
C0C0
C0C0
C0C0
C1C0
FF80
FF00
ENDCHAR
STARTCHAR 0065
ENCODING 101
SWIDTH 240 0
DWIDTH 12 0
BBX 11 34 0 0
BITMAP
3FE0
3FE0
3000
3000
3000
3000
3000
3000
3000
3000
3000
3000
3000
3000
3000
3000
3000
3000
3000
FFE0
FFE0
3000
3000
3000
3000
3000
3000
3000
3000
3000
3000
3000
3FE0
3FE0
ENDCHAR
STARTCHAR 0066
ENCODING 102
SWIDTH 240 0
DWIDTH 12 0
BBX 11 34 0 0
BITMAP
3FE0
3FE0
3000
3000
3000
3000
3000
3000
3000
3000
3000
3000
3000
3000
3000
3000
3000
3000
3000
FFE0
FFE0
3000
3000
3000
3000
3000
3000
3000
3000
3000
3000
3000
3000
3000
ENDCHAR
STARTCHAR 0067
ENCODING 103
SWIDTH 240 0
DWIDTH 12 0
BBX 10 35 1 0
BITMAP
3F00
7F80
E180
C0C0
C0C0
C0C0
C0C0
C0C0
C0C0
C000
C000
C000
C000
C000
C000
C000
C000
C000
C000
C000
C7C0
C7C0
C0C0
C0C0
C0C0
C0C0
C0C0
C0C0
C0C0
C0C0
C0C0
C0C0
E1C0
7F80
3F00
ENDCHAR
STARTCHAR 0068
ENCODING 104
SWIDTH 260 0
DWIDTH 13 0
BBX 11 34 0 0
BITMAP
3060
3060
3060
3060
3060
3060
3060
3060
3060
3060
3060
3060
3060
3060
3060
3060
3060
3060
3060
FFE0
FFE0
3060
3060
3060
3060
3060
3060
3060
3060
3060
3060
3060
3060
3060
ENDCHAR
STARTCHAR 0069
ENCODING 105
SWIDTH 80 0
DWIDTH 4 0
BBX 2 34 1 0
BITMAP
C0
C0
C0
C0
C0
C0
C0
C0
C0
C0
C0
C0
C0
C0
C0
C0
C0
C0
C0
C0
C0
C0
C0
C0
C0
C0
C0
C0
C0
C0
C0
C0
C0
C0
ENDCHAR
STARTCHAR 006A
ENCODING 106
SWIDTH 220 0
DWIDTH 11 0
BBX 9 34 0 0
BITMAP
0180
0180
0180
0180
0180
0180
0180
0180
0180
0180
0180
0180
0180
0180
0180
0180
0180
0180
0180
0180
0180
0180
0180
0180
0180
0180
C180
C180
C180
C180
C180
E380
7F00
3E00
ENDCHAR
STARTCHAR 006B
ENCODING 107
SWIDTH 280 0
DWIDTH 14 0
BBX 15 34 0 0
BITMAP
3030
3030
3030
3030
3030
3030
3030
3030
3030
3030
3030
3030
3030
3030
3030
3030
3030
3030
3070
FFE0
FFE0
3070
3030
3030
3030
3030
3030
3030
3030
3030
3030
3038
301E
300E
ENDCHAR
STARTCHAR 006C
ENCODING 108
SWIDTH 200 0
DWIDTH 10 0
BBX 9 34 1 0
BITMAP
C000
C000
C000
C000
C000
C000
C000
C000
C000
C000
C000
C000
C000
C000
C000
C000
C000
C000
C000
C000
C000
C000
C000
C000
C000
C000
C000
C000
C000
C000
C000
C000
FF80
FF80
ENDCHAR
STARTCHAR 006D
ENCODING 109
SWIDTH 380 0
DWIDTH 19 0
BBX 17 35 1 0
BITMAP
3F3E00
7FFF00
E1E380
C0C180
C0C180
C0C180
C0C180
C0C180
C0C180
C0C180
C0C180
C0C180
C0C180
C0C180
C0C180
C0C180
C0C180
C0C180
C0C180
C0C180
C0C180
C0C180
C0C180
C0C180
C0C180
C0C180
C0C180
C0C180
C0C180
C0C180
C0C180
C0C180
C0C180
C0C180
C0C180
ENDCHAR
STARTCHAR 006E
ENCODING 110
SWIDTH 240 0
DWIDTH 12 0
BBX 10 35 1 0
BITMAP
0F00
FF80
E1C0
C0C0
C0C0
C0C0
C0C0
C0C0
C0C0
C0C0
C0C0
C0C0
C0C0
C0C0
C0C0
C0C0
C0C0
C0C0
C0C0
C0C0
C0C0
C0C0
C0C0
C0C0
C0C0
C0C0
C0C0
C0C0
C0C0
C0C0
C0C0
C0C0
C0C0
C0C0
C0C0
ENDCHAR
STARTCHAR 006F
ENCODING 111
SWIDTH 240 0
DWIDTH 12 0
BBX 10 35 1 0
BITMAP
3E00
7F80
C080
C0C0
C0C0
C0C0
C0C0
C0C0
C0C0
C0C0
C0C0
C0C0
C0C0
C0C0
C0C0
C0C0
C0C0
C0C0
C0C0
C0C0
C0C0
C0C0
C0C0
C0C0
C0C0
C0C0
C0C0
C0C0
C0C0
C0C0
C0C0
C0C0
E1C0
7F80
3F00
ENDCHAR
STARTCHAR 0070
ENCODING 112
SWIDTH 240 0
DWIDTH 12 0
BBX 11 34 0 0
BITMAP
3F80
3FC0
30E0
3060
3060
3060
3060
3060
3060
3060
3060
3060
3060
3060
3060
3060
3060
3060
30E0
FFC0
FF80
3000
3000
3000
3000
3000
3000
3000
3000
3000
3000
3000
3000
3000
ENDCHAR
STARTCHAR 0071
ENCODING 113
SWIDTH 240 0
DWIDTH 12 0
BBX 11 35 1 0
BITMAP
3E00
7F80
E1C0
C0C0
C0C0
C0C0
C0C0
C0C0
C0C0
C0C0
C0C0
C0C0
C0C0
C0C0
C0C0
C0C0
C0C0
C0C0
C0C0
C0C0
C0C0
C0C0
C0C0
C0C0
C0C0
C0C0
C0C0
C0C0
C0C0
C0C0
C4C0
CEC0
C3C0
61E0
3FE0
ENDCHAR
STARTCHAR 0072
ENCODING 114
SWIDTH 280 0
DWIDTH 14 0
BBX 15 34 0 0
BITMAP
3FC0
3FE0
3070
3030
3030
3030
3030
3030
3030
3030
3030
3030
3030
3030
3030
3030
3030
3030
3070
FFE0
FFE0
3070
3030
3030
3030
3030
3030
3030
3030
3030
3030
3038
301C
300E
ENDCHAR
STARTCHAR 0073
ENCODING 115
SWIDTH 240 0
DWIDTH 12 0
BBX 10 35 1 0
BITMAP
3E00
7F80
E180
C0C0
C0C0
C0C0
C0C0
C0C0
C000
C000
C000
C000
C000
C000
C000
C000
C000
C000
E000
7C00
3F80
0380
00C0
00C0
00C0
00C0
C0C0
C0C0
C0C0
C0C0
C0C0
C0C0
E1C0
7F80
3F00
ENDCHAR
STARTCHAR 0074
ENCODING 116
SWIDTH 180 0
DWIDTH 9 0
BBX 8 34 1 0
BITMAP
FF
FF
18
18
18
18
18
18
18
18
18
18
18
18
18
18
18
18
18
18
18
18
18
18
18
18
18
18
18
18
18
18
18
18
ENDCHAR
STARTCHAR 0075
ENCODING 117
SWIDTH 240 0
DWIDTH 12 0
BBX 9 34 1 0
BITMAP
C180
C180
C180
C180
C180
C180
C180
C180
C180
C180
C180
C180
C180
C180
C180
C180
C180
C180
C180
C180
C180
C180
C180
C180
C180
C180
C180
C180
C180
C180
C180
E380
7F00
3E00
ENDCHAR
STARTCHAR 0076
ENCODING 118
SWIDTH 220 0
DWIDTH 11 0
BBX 11 34 0 0
BITMAP
C060
C060
C060
C060
C0E0
60C0
60C0
60C0
60C0
60C0
60C0
60C0
71C0
3180
3180
3180
3180
3180
3180
3180
1B00
1B00
1B00
1B00
1B00
1B00
1B00
1F00
0E00
0E00
0E00
0E00
0E00
0400
ENDCHAR
STARTCHAR 0077
ENCODING 119
SWIDTH 380 0
DWIDTH 19 0
BBX 17 34 1 0
BITMAP
C0C180
C0C180
C0C180
C0C180
C0C180
C0C180
C0C180
C0C180
C0C180
C0C180
C0C180
C0C180
C0C180
C0C180
C0C180
C0C180
C0C180
C0C180
C0C180
C0C180
C0C180
C0C180
C0C180
C0C180
C0C180
C0C180
C0C180
C0C180
C0C180
C0C180
C0C180
E1E380
7FFF00
3E3E00
ENDCHAR
STARTCHAR 0078
ENCODING 120
SWIDTH 220 0
DWIDTH 11 0
BBX 10 34 0 0
BITMAP
C0C0
C0C0
C0C0
C0C0
6180
6180
6180
6180
3300
3300
3300
3300
1E00
1E00
1E00
1E00
0C00
0C00
1E00
1E00
1E00
1A00
3300
3300
3300
3100
6180
6180
6180
6180
C0C0
C0C0
C0C0
C0C0
ENDCHAR
STARTCHAR 0079
ENCODING 121
SWIDTH 240 0
DWIDTH 12 0
BBX 9 34 1 0
BITMAP
C180
C180
C180
C180
C180
C180
C180
C180
C180
C180
C180
C180
C180
C180
C180
C180
C180
C180
6380
7F80
0180
0180
0180
0180
0180
0180
C180
C180
C180
C180
C180
E380
7F00
3E00
ENDCHAR
STARTCHAR 007A
ENCODING 122
SWIDTH 200 0
DWIDTH 10 0
BBX 9 34 0 0
BITMAP
FF00
FF80
0180
0300
0300
0300
0300
0700
0600
0600
0600
0600
0C00
0C00
0C00
0C00
0C00
1800
1800
1800
1800
1800
3000
3000
3000
3000
7000
6000
6000
6000
6000
C000
FF80
7F80
ENDCHAR
STARTCHAR 007B
ENCODING 123
SWIDTH 140 0
DWIDTH 7 0
BBX 4 34 2 0
BITMAP
F0
F0
C0
C0
C0
C0
C0
C0
C0
C0
C0
C0
C0
C0
C0
C0
C0
C0
C0
C0
C0
C0
C0
C0
C0
C0
C0
C0
C0
C0
C0
C0
F0
F0
ENDCHAR
STARTCHAR 007C
ENCODING 124
SWIDTH 260 0
DWIDTH 13 0
BBX 2 39 5 -8
BITMAP
C0
C0
C0
C0
C0
C0
C0
C0
C0
C0
C0
C0
C0
C0
C0
C0
C0
C0
C0
C0
C0
C0
C0
C0
C0
C0
C0
C0
C0
C0
C0
C0
C0
C0
C0
C0
C0
C0
C0
ENDCHAR
STARTCHAR 007D
ENCODING 125
SWIDTH 140 0
DWIDTH 7 0
BBX 4 34 1 0
BITMAP
F0
F0
30
30
30
30
30
30
30
30
30
30
30
30
30
30
30
30
30
30
30
30
30
30
30
30
30
30
30
30
30
30
F0
F0
ENDCHAR
STARTCHAR 007E
ENCODING 126
SWIDTH 500 0
DWIDTH 25 0
BBX 19 9 3 7
BITMAP
3F0060
7F8060
63C060
E1C060
C0E060
C070E0
C078C0
C03FC0
C01F80
ENDCHAR
STARTCHAR 00A0
ENCODING 160
SWIDTH 220 0
DWIDTH 11 0
BBX 0 0 0 0
BITMAP
ENDCHAR
STARTCHAR 00A1
ENCODING 161
SWIDTH 140 0
DWIDTH 7 0
BBX 3 34 2 0
BITMAP
C0
E0
00
C0
C0
C0
C0
C0
C0
C0
C0
C0
C0
C0
C0
C0
C0
C0
C0
C0
C0
C0
C0
C0
C0
C0
C0
C0
C0
C0
C0
C0
C0
C0
ENDCHAR
STARTCHAR 00A2
ENCODING 162
SWIDTH 240 0
DWIDTH 12 0
BBX 10 25 1 11
BITMAP
0C00
3F00
7F80
CCC0
CCC0
CCC0
CCC0
CCC0
CCC0
CC00
CC00
CC00
CC00
CC00
CC00
CCC0
CCC0
CCC0
CCC0
CCC0
CCC0
EDC0
7F80
3F00
0C00
ENDCHAR
STARTCHAR 00A3
ENCODING 163
SWIDTH 240 0
DWIDTH 12 0
BBX 12 34 0 0
BITMAP
0F80
3FC0
30E0
3060
7060
6060
7060
3060
3060
3000
3000
3000
1800
1800
1800
FFE0
FFE0
1800
1800
1800
1800
1800
1800
1800
3800
3000
3000
3000
3000
7000
6000
6000
7FF0
7FF0
ENDCHAR
STARTCHAR 00A4
ENCODING 164
SWIDTH 400 0
DWIDTH 20 0
BBX 19 19 1 8
BITMAP
C00060
E3F0E0
7FFFC0
3E0F80
380380
300180
7001C0
6000C0
6000C0
6000C0
6000C0
6000C0
7001C0
300180
380380
3E0F80
7FFFC0
E3F0E0
C00060
ENDCHAR
STARTCHAR 00A5
ENCODING 165
SWIDTH 240 0
DWIDTH 12 0
BBX 10 34 1 0
BITMAP
C0C0
C0C0
C0C0
C0C0
C0C0
C0C0
C0C0
C0C0
C0C0
C0C0
C0C0
C0C0
C0C0
C0C0
C0C0
C0C0
C0C0
E1C0
7F80
3F00
0C00
0C00
0C00
FFC0
FFC0
0C00
0C00
FFC0
FFC0
0C00
0C00
0C00
0C00
0C00
ENDCHAR
STARTCHAR 00A6
ENCODING 166
SWIDTH 200 0
DWIDTH 10 0
BBX 3 35 3 -1
BITMAP
E0
E0
E0
E0
E0
E0
E0
E0
E0
E0
E0
E0
E0
E0
00
00
00
00
00
00
E0
E0
E0
E0
E0
E0
E0
E0
E0
E0
E0
E0
E0
E0
E0
ENDCHAR
STARTCHAR 00A7
ENCODING 167
SWIDTH 240 0
DWIDTH 12 0
BBX 11 35 0 0
BITMAP
0F00
1FC0
30E0
6060
6000
6000
6000
7000
3800
3800
1C00
3F00
3780
6380
E1C0
C0E0
C060
C060
C060
6060
30C0
3980
1F00
0F00
0700
0380
0180
01C0
00C0
00C0
80C0
C1C0
E380
7F00
3E00
ENDCHAR
STARTCHAR 00A8
ENCODING 168
SWIDTH 220 0
DWIDTH 11 0
BBX 8 3 2 37
BITMAP
E7
E7
E7
ENDCHAR
STARTCHAR 00A9
ENCODING 169
SWIDTH 360 0
DWIDTH 18 0
BBX 15 28 1 0
BITMAP
0FE0
3018
600C
C006
C786
CC46
CC46
CC46
CC46
CC06
CC06
CC06
CC06
CC06
CC06
CC06
CC06
CC06
CC06
CC46
CC46
CC46
CC46
CFC6
C306
600C
3018
0FE0
ENDCHAR
STARTCHAR 00AA
ENCODING 170
SWIDTH 260 0
DWIDTH 13 0
BBX 7 20 2 14
BITMAP
7C
42
42
42
42
42
42
42
42
42
42
FE
42
42
42
42
42
42
42
42
ENDCHAR
STARTCHAR 00AB
ENCODING 171
SWIDTH 240 0
DWIDTH 12 0
BBX 8 17 2 2
BITMAP
1B
3B
36
36
66
6C
6C
CC
D8
DC
6C
6C
66
36
36
33
1B
ENDCHAR
STARTCHAR 00AC
ENCODING 172
SWIDTH 1200 0
DWIDTH 60 0
BBX 56 38 2 -4
BITMAP
FFFFFFFFFFFFFF
FFFFFFFFFFFFFF
F80FDFC080601F
FC7FCFF31F1C7F
FC7F8FF27FBC7F
FE3F8FF47FBC7F
FE3F87F47FBC7F
FE3F47F47FFC7F
FE3F63E47FFC7F
FF1E63EC3FFC7F
FF1EF3EE007C7F
FF1EF1CF801C7F
FF9DF1DFFE0C7F
FF8DF9DFFF8C7F
FF89F89FFF8C7F
FF8BF8BFFF8C7F
FF0BFCBDFF8C7F
FE07FC3DFF9C7F
FDC7FC3CFF3C7F
FBC7FE7C7E7C7F
F3CFFE7E00601F
F3FFFFFFFC7FFF
F3FFFFFFFC7FFF
F3FFFFFFFC7FFF
E03BBC181C06F3
C027EF0F1004FB
F3CFE71F8C79FB
F3CFF71F8C78FF
F38FF33FCC783F
F38FF33FCC7C07
F38FF33FCC7F01
F38FF33FCC7FF1
F387F33FCC7BF9
F387F73FCC7BF9
F3C3E73FCC7BF9
E1E1CF1F8C08F3
80703C0782080F
FFFFFFFFFFFFFF
ENDCHAR
STARTCHAR 00AD
ENCODING 173
SWIDTH 140 0
DWIDTH 7 0
BBX 5 2 1 13
BITMAP
F8
F8
ENDCHAR
STARTCHAR 00AE
ENCODING 174
SWIDTH 360 0
DWIDTH 18 0
BBX 15 28 1 0
BITMAP
0FE0
3018
600C
C786
C7E6
C666
C666
C666
C666
C666
C666
C666
C666
C666
CFC6
CFC6
C666
C666
C666
C666
C666
C666
C666
C636
C006
600C
381C
0FF0
ENDCHAR
STARTCHAR 00AF
ENCODING 175
SWIDTH 220 0
DWIDTH 11 0
BBX 8 2 2 36
BITMAP
FF
FF
ENDCHAR
STARTCHAR 00B0
ENCODING 176
SWIDTH 240 0
DWIDTH 12 0
BBX 10 10 1 25
BITMAP
1E00
7F80
6180
C0C0
C0C0
C0C0
C0C0
6180
7F80
1E00
ENDCHAR
STARTCHAR 00B1
ENCODING 177
SWIDTH 500 0
DWIDTH 25 0
BBX 23 26 1 -2
BITMAP
001800
001800
001800
001800
001800
001800
001800
001800
001800
001800
FFFFFE
FFFFFE
001800
001800
001800
001800
001800
001800
001800
001800
001800
001800
001800
000000
FFFFFE
FFFFFE
ENDCHAR
STARTCHAR 00B2
ENCODING 178
SWIDTH 160 0
DWIDTH 8 0
BBX 6 21 1 14
BITMAP
78
DC
CC
CC
CC
0C
0C
0C
0C
0C
0C
0C
38
E0
C0
C0
C0
C0
C0
FC
FC
ENDCHAR
STARTCHAR 00B3
ENCODING 179
SWIDTH 160 0
DWIDTH 8 0
BBX 6 22 1 13
BITMAP
78
DC
CC
CC
8C
0C
0C
0C
0C
FC
FC
0C
0C
0C
0C
0C
CC
CC
CC
CC
F8
20
ENDCHAR
STARTCHAR 00B4
ENCODING 180
SWIDTH 220 0
DWIDTH 11 0
BBX 7 6 3 36
BITMAP
06
0E
3C
70
E0
80
ENDCHAR
STARTCHAR 00B5
ENCODING 181
SWIDTH 220 0
DWIDTH 11 0
BBX 9 22 1 -6
BITMAP
C180
C180
C180
C180
C180
C180
C180
C180
C180
C180
C180
C180
C180
C180
C180
E300
FE00
C000
C000
C000
C000
C000
ENDCHAR
STARTCHAR 00B6
ENCODING 182
SWIDTH 400 0
DWIDTH 20 0
BBX 16 34 2 0
BITMAP
01FF
07FF
1FCC
3FCC
7FCC
7FCC
FFCC
FFCC
FFCC
FFCC
FFCC
FFCC
7FCC
7FCC
3FCC
1FCC
0FCC
01CC
00CC
00CC
00CC
00CC
00CC
00CC
00CC
00CC
00CC
00CC
00CC
00CC
00CC
00CC
00CC
00CC
ENDCHAR
STARTCHAR 00B7
ENCODING 183
SWIDTH 240 0
DWIDTH 12 0
BBX 4 4 4 13
BITMAP
60
F0
F0
F0
ENDCHAR
STARTCHAR 00B8
ENCODING 184
SWIDTH 220 0
DWIDTH 11 0
BBX 5 7 3 -7
BITMAP
30
70
70
38
18
18
F0
ENDCHAR
STARTCHAR 00B9
ENCODING 185
SWIDTH 80 0
DWIDTH 4 0
BBX 2 20 1 13
BITMAP
C0
C0
C0
C0
C0
C0
C0
C0
C0
C0
C0
C0
C0
C0
C0
C0
C0
C0
C0
C0
ENDCHAR
STARTCHAR 00BA
ENCODING 186
SWIDTH 240 0
DWIDTH 12 0
BBX 6 21 3 13
BITMAP
78
CC
CC
CC
CC
CC
CC
CC
CC
CC
CC
CC
CC
CC
CC
CC
CC
CC
CC
CC
7C
ENDCHAR
STARTCHAR 00BB
ENCODING 187
SWIDTH 240 0
DWIDTH 12 0
BBX 8 17 2 2
BITMAP
D8
DC
6C
6C
66
36
36
33
1B
3B
36
36
66
6C
6C
DC
D8
ENDCHAR
STARTCHAR 00BC
ENCODING 188
SWIDTH 500 0
DWIDTH 25 0
BBX 16 35 5 0
BITMAP
0060
C060
C060
C060
C040
C0C0
C0C0
C0C0
C0C0
C180
C180
C180
C180
C180
C31E
C31E
C31E
C316
C236
C636
C636
0636
0636
0426
0C66
0C66
0C66
0C7F
087F
1806
1806
1806
1806
1006
3006
ENDCHAR
STARTCHAR 00BD
ENCODING 189
SWIDTH 500 0
DWIDTH 25 0
BBX 17 35 5 -1
BITMAP
002000
C06000
C06000
C06000
C06000
C04000
C0C000
C0C000
C0C000
C0C000
C08000
C18000
C18000
C18000
C18F00
C11F80
C31980
C31980
C31980
C30180
C20180
020180
060180
060180
060180
060180
040F00
0C1C00
0C1800
0C1800
0C1800
081800
181800
181F80
181F80
ENDCHAR
STARTCHAR 00BE
ENCODING 190
SWIDTH 500 0
DWIDTH 25 0
BBX 19 35 3 0
BITMAP
780C00
DC0C00
CC0800
CC1800
8C1800
0C1800
0C1800
0C1000
0C3000
FC3000
FC3000
0C3000
0C2000
0C6000
0C63C0
0C63C0
CC63C0
CC42C0
CCC6C0
CCC6C0
F8C6C0
20C6C0
0086C0
0184C0
018CC0
018CC0
018CC0
010FE0
030FE0
0300C0
0300C0
0200C0
0200C0
0600C0
0600C0
ENDCHAR
STARTCHAR 00BF
ENCODING 191
SWIDTH 220 0
DWIDTH 11 0
BBX 9 34 1 0
BITMAP
0C00
1C00
0000
0C00
0C00
0C00
0C00
0C00
3C00
7C00
E000
C000
C000
C000
C000
C000
C000
C000
C000
C000
C000
C000
C000
C000
C000
C000
C180
C180
C180
C180
C180
C180
6300
3E00
ENDCHAR
STARTCHAR 00C0
ENCODING 192
SWIDTH 260 0
DWIDTH 13 0
BBX 12 43 0 0
BITMAP
1000
3800
1E00
0700
0380
0180
0000
0000
0FC0
1FE0
3030
3030
3030
3030
3030
3030
3030
3030
3030
3030
3030
3030
3030
3030
3030
3030
3030
3030
FFF0
FFF0
3030
3030
3030
3030
3030
3030
3030
3030
3030
3030
3030
3030
3030
ENDCHAR
STARTCHAR 00C1
ENCODING 193
SWIDTH 260 0
DWIDTH 13 0
BBX 12 43 0 1
BITMAP
0180
0380
0700
1C00
3800
0000
0000
0000
0FC0
1FE0
3030
3030
3030
3030
3030
3030
3030
3030
3030
3030
3030
3030
3030
3030
3030
3030
3030
3030
FFF0
FFF0
3030
3030
3030
3030
3030
3030
3030
3030
3030
3030
3030
3030
3030
ENDCHAR
STARTCHAR 00C2
ENCODING 194
SWIDTH 260 0
DWIDTH 13 0
BBX 12 41 0 1
BITMAP
0780
1FE0
1860
0000
0000
0000
0FC0
1FE0
3030
3030
3030
3030
3030
3030
3030
3030
3030
3030
3030
3030
3030
3030
3030
3030
3030
3030
FFF0
FFF0
3030
3030
3030
3030
3030
3030
3030
3030
3030
3030
3030
3030
3030
ENDCHAR
STARTCHAR 00C3
ENCODING 195
SWIDTH 260 0
DWIDTH 13 0
BBX 12 42 0 0
BITMAP
0C00
1F60
1BC0
1180
0000
0000
0000
0FC0
1FE0
3030
3030
3030
3030
3030
3030
3030
3030
3030
3030
3030
3030
3030
3030
3030
3030
3030
3030
FFF0
FFF0
3030
3030
3030
3030
3030
3030
3030
3030
3030
3030
3030
3030
3030
ENDCHAR
STARTCHAR 00C4
ENCODING 196
SWIDTH 260 0
DWIDTH 13 0
BBX 12 42 0 0
BITMAP
1CE0
1CE0
1CE0
0000
0000
0000
0000
0FC0
1FE0
3030
3030
3030
3030
3030
3030
3030
3030
3030
3030
3030
3030
3030
3030
3030
3030
3030
3030
FFF0
FFF0
3030
3030
3030
3030
3030
3030
3030
3030
3030
3030
3030
3030
3030
ENDCHAR
STARTCHAR 00C5
ENCODING 197
SWIDTH 260 0
DWIDTH 13 0
BBX 12 44 0 0
BITMAP
0780
0FC0
0C60
0C60
0CE0
07C0
0100
0000
0000
0FC0
1FE0
3030
3030
3030
3030
3030
3030
3030
3030
3030
3030
3030
3030
3030
3030
3030
3030
3030
3030
FFF0
FFF0
3030
3030
3030
3030
3030
3030
3030
3030
3030
3030
3030
3030
3030
ENDCHAR
STARTCHAR 00C6
ENCODING 198
SWIDTH 380 0
DWIDTH 19 0
BBX 18 34 1 1
BITMAP
0FFFC0
1FFFC0
306000
306000
306000
306000
306000
306000
306000
306000
306000
306000
306000
306000
306000
306000
306000
306000
306000
FFFF80
FFFFC0
306000
306000
306000
306000
306000
306000
306000
306000
306000
306000
306000
307FC0
307FC0
ENDCHAR
STARTCHAR 00C7
ENCODING 199
SWIDTH 240 0
DWIDTH 12 0
BBX 10 41 1 -7
BITMAP
3F00
7F80
E1C0
C0C0
C0C0
C0C0
C0C0
C0C0
C0C0
C000
C000
C000
C000
C000
C000
C000
C000
C000
C000
C000
C000
C000
C000
C000
C000
C000
C0C0
C0C0
C0C0
C0C0
C0C0
C0C0
E1C0
7F80
3F00
0C00
1E00
0600
0600
3E00
3E00
ENDCHAR
STARTCHAR 00C8
ENCODING 200
SWIDTH 240 0
DWIDTH 12 0
BBX 11 43 0 0
BITMAP
1000
1C00
0E00
0700
0180
0080
0000
0000
0000
3FE0
3FE0
3000
3000
3000
3000
3000
3000
3000
3000
3000
3000
3000
3000
3000
3000
3000
3000
3000
FFE0
FFE0
3000
3000
3000
3000
3000
3000
3000
3000
3000
3000
3000
3FE0
3FE0
ENDCHAR
STARTCHAR 00C9
ENCODING 201
SWIDTH 240 0
DWIDTH 12 0
BBX 11 43 0 1
BITMAP
0180
0380
0E00
1C00
3800
0000
0000
0000
0000
3FE0
3FE0
3000
3000
3000
3000
3000
3000
3000
3000
3000
3000
3000
3000
3000
3000
3000
3000
3000
FFE0
FFE0
3000
3000
3000
3000
3000
3000
3000
3000
3000
3000
3000
3FE0
3FE0
ENDCHAR
STARTCHAR 00CA
ENCODING 202
SWIDTH 240 0
DWIDTH 12 0
BBX 11 41 0 1
BITMAP
0700
1FC0
18C0
0000
0000
0000
0000
3FE0
3FE0
3000
3000
3000
3000
3000
3000
3000
3000
3000
3000
3000
3000
3000
3000
3000
3000
3000
FFE0
FFE0
3000
3000
3000
3000
3000
3000
3000
3000
3000
3000
3000
3FE0
3FE0
ENDCHAR
STARTCHAR 00CB
ENCODING 203
SWIDTH 240 0
DWIDTH 12 0
BBX 11 42 0 1
BITMAP
18C0
1CE0
18C0
0000
0000
0000
0000
0000
3FE0
3FE0
3000
3000
3000
3000
3000
3000
3000
3000
3000
3000
3000
3000
3000
3000
3000
3000
3000
FFE0
FFE0
3000
3000
3000
3000
3000
3000
3000
3000
3000
3000
3000
3FE0
3FE0
ENDCHAR
STARTCHAR 00CC
ENCODING 204
SWIDTH 80 0
DWIDTH 4 0
BBX 7 43 -4 0
BITMAP
80
E0
70
38
0E
04
00
00
00
06
06
06
06
06
06
06
06
06
06
06
06
06
06
06
06
06
06
06
06
06
06
06
06
06
06
06
06
06
06
06
06
06
06
ENDCHAR
STARTCHAR 00CD
ENCODING 205
SWIDTH 80 0
DWIDTH 4 0
BBX 6 43 0 0
BITMAP
04
1C
38
70
C0
80
00
00
00
60
60
60
60
60
60
60
60
60
60
60
60
60
60
60
60
60
60
60
60
60
60
60
60
60
60
60
60
60
60
60
60
60
60
ENDCHAR
STARTCHAR 00CE
ENCODING 206
SWIDTH 80 0
DWIDTH 4 0
BBX 8 42 -2 0
BITMAP
18
7C
E7
81
00
00
00
00
18
18
18
18
18
18
18
18
18
18
18
18
18
18
18
18
18
18
18
18
18
18
18
18
18
18
18
18
18
18
18
18
18
18
ENDCHAR
STARTCHAR 00CF
ENCODING 207
SWIDTH 80 0
DWIDTH 4 0
BBX 8 41 -2 1
BITMAP
E7
E7
42
00
00
00
00
18
18
18
18
18
18
18
18
18
18
18
18
18
18
18
18
18
18
18
18
18
18
18
18
18
18
18
18
18
18
18
18
18
18
ENDCHAR
STARTCHAR 00D0
ENCODING 208
SWIDTH 240 0
DWIDTH 12 0
BBX 11 34 0 0
BITMAP
3F80
3FC0
30E0
3060
3060
3060
3060
3060
3060
3060
3060
3060
3060
3060
3060
3060
3060
3060
3060
FE60
FE60
3060
3060
3060
3060
3060
3060
3060
3060
3060
3060
30E0
3FC0
3F80
ENDCHAR
STARTCHAR 00D1
ENCODING 209
SWIDTH 240 0
DWIDTH 12 0
BBX 10 41 1 1
BITMAP
7D80
6F80
6700
0000
0000
0000
0F00
FF80
E1C0
C0C0
C0C0
C0C0
C0C0
C0C0
C0C0
C0C0
C0C0
C0C0
C0C0
C0C0
C0C0
C0C0
C0C0
C0C0
C0C0
C0C0
C0C0
C0C0
C0C0
C0C0
C0C0
C0C0
C0C0
C0C0
C0C0
C0C0
C0C0
C0C0
C0C0
C0C0
C0C0
ENDCHAR
STARTCHAR 00D2
ENCODING 210
SWIDTH 240 0
DWIDTH 12 0
BBX 10 43 1 0
BITMAP
6000
7000
3800
1E00
0700
0300
0000
0000
3E00
7F80
C080
C0C0
C0C0
C0C0
C0C0
C0C0
C0C0
C0C0
C0C0
C0C0
C0C0
C0C0
C0C0
C0C0
C0C0
C0C0
C0C0
C0C0
C0C0
C0C0
C0C0
C0C0
C0C0
C0C0
C0C0
C0C0
C0C0
C0C0
C0C0
C0C0
E1C0
7F80
3F00
ENDCHAR
STARTCHAR 00D3
ENCODING 211
SWIDTH 240 0
DWIDTH 12 0
BBX 10 43 1 0
BITMAP
0200
0600
1C00
3800
7000
4000
0000
0000
3E00
7F80
C080
C0C0
C0C0
C0C0
C0C0
C0C0
C0C0
C0C0
C0C0
C0C0
C0C0
C0C0
C0C0
C0C0
C0C0
C0C0
C0C0
C0C0
C0C0
C0C0
C0C0
C0C0
C0C0
C0C0
C0C0
C0C0
C0C0
C0C0
C0C0
C0C0
E1C0
7F80
3F00
ENDCHAR
STARTCHAR 00D4
ENCODING 212
SWIDTH 240 0
DWIDTH 12 0
BBX 10 41 1 1
BITMAP
3E00
7780
4180
0000
0000
0000
3E00
7F80
C080
C0C0
C0C0
C0C0
C0C0
C0C0
C0C0
C0C0
C0C0
C0C0
C0C0
C0C0
C0C0
C0C0
C0C0
C0C0
C0C0
C0C0
C0C0
C0C0
C0C0
C0C0
C0C0
C0C0
C0C0
C0C0
C0C0
C0C0
C0C0
C0C0
E1C0
7F80
3F00
ENDCHAR
STARTCHAR 00D5
ENCODING 213
SWIDTH 240 0
DWIDTH 12 0
BBX 10 42 1 0
BITMAP
1000
7D80
6F80
6700
0000
0000
0000
3E00
7F80
C080
C0C0
C0C0
C0C0
C0C0
C0C0
C0C0
C0C0
C0C0
C0C0
C0C0
C0C0
C0C0
C0C0
C0C0
C0C0
C0C0
C0C0
C0C0
C0C0
C0C0
C0C0
C0C0
C0C0
C0C0
C0C0
C0C0
C0C0
C0C0
C0C0
E1C0
7F80
3F00
ENDCHAR
STARTCHAR 00D6
ENCODING 214
SWIDTH 240 0
DWIDTH 12 0
BBX 10 42 1 0
BITMAP
2100
7380
7380
0000
0000
0000
0000
3E00
7F80
C080
C0C0
C0C0
C0C0
C0C0
C0C0
C0C0
C0C0
C0C0
C0C0
C0C0
C0C0
C0C0
C0C0
C0C0
C0C0
C0C0
C0C0
C0C0
C0C0
C0C0
C0C0
C0C0
C0C0
C0C0
C0C0
C0C0
C0C0
C0C0
C0C0
E1C0
7F80
3F00
ENDCHAR
STARTCHAR 00D7
ENCODING 215
SWIDTH 500 0
DWIDTH 25 0
BBX 21 21 2 1
BITMAP
C00018
E00038
700070
3800E0
1C01C0
0E0380
070700
038E00
01DC00
00F800
007000
00F800
01DC00
038E00
070700
0E0380
1C01C0
3800E0
700070
E00038
C00018
ENDCHAR
STARTCHAR 00D8
ENCODING 216
SWIDTH 240 0
DWIDTH 12 0
BBX 10 35 1 0
BITMAP
3E80
7FC0
E1C0
C1C0
C1C0
C1C0
C3C0
C3C0
C3C0
C3C0
C7C0
C7C0
C6C0
C6C0
C6C0
CEC0
CCC0
CCC0
CCC0
CCC0
D8C0
D8C0
D8C0
D8C0
F8C0
F0C0
F0C0
F0C0
F0C0
E0C0
E0C0
E0C0
E0C0
E180
7F00
ENDCHAR
STARTCHAR 00D9
ENCODING 217
SWIDTH 240 0
DWIDTH 12 0
BBX 9 43 1 0
BITMAP
4000
7000
3800
1E00
0600
0200
0000
0000
0000
C180
C180
C180
C180
C180
C180
C180
C180
C180
C180
C180
C180
C180
C180
C180
C180
C180
C180
C180
C180
C180
C180
C180
C180
C180
C180
C180
C180
C180
C180
C180
E380
7F00
3E00
ENDCHAR
STARTCHAR 00DA
ENCODING 218
SWIDTH 240 0
DWIDTH 12 0
BBX 9 43 1 0
BITMAP
0600
0E00
1C00
7800
E000
4000
0000
0000
0000
C180
C180
C180
C180
C180
C180
C180
C180
C180
C180
C180
C180
C180
C180
C180
C180
C180
C180
C180
C180
C180
C180
C180
C180
C180
C180
C180
C180
C180
C180
C180
E380
7F00
3E00
ENDCHAR
STARTCHAR 00DB
ENCODING 219
SWIDTH 240 0
DWIDTH 12 0
BBX 9 42 1 0
BITMAP
1C00
3E00
7380
0000
0000
0000
0000
0000
C180
C180
C180
C180
C180
C180
C180
C180
C180
C180
C180
C180
C180
C180
C180
C180
C180
C180
C180
C180
C180
C180
C180
C180
C180
C180
C180
C180
C180
C180
C180
E380
7F00
3E00
ENDCHAR
STARTCHAR 00DC
ENCODING 220
SWIDTH 240 0
DWIDTH 12 0
BBX 9 42 1 1
BITMAP
6300
7380
6300
0000
0000
0000
0000
0000
C180
C180
C180
C180
C180
C180
C180
C180
C180
C180
C180
C180
C180
C180
C180
C180
C180
C180
C180
C180
C180
C180
C180
C180
C180
C180
C180
C180
C180
C180
C180
E380
7F00
3E00
ENDCHAR
STARTCHAR 00DD
ENCODING 221
SWIDTH 240 0
DWIDTH 12 0
BBX 9 43 1 1
BITMAP
0600
1E00
3800
7000
C000
0000
0000
0000
0000
C180
C180
C180
C180
C180
C180
C180
C180
C180
C180
C180
C180
C180
C180
C180
C180
C180
C180
6380
7F80
0180
0180
0180
0180
0180
0180
C180
C180
C180
C180
C180
E380
7F00
3E00
ENDCHAR
STARTCHAR 00DE
ENCODING 222
SWIDTH 240 0
DWIDTH 12 0
BBX 11 34 0 0
BITMAP
3000
3000
3000
3000
3000
3000
3F80
3FC0
30E0
3060
3060
3060
3060
3060
3060
3060
3060
3060
3060
3060
3060
3060
3060
3060
3060
30E0
FFC0
FF80
3000
3000
3000
3000
3000
3000
ENDCHAR
STARTCHAR 00DF
ENCODING 223
SWIDTH 260 0
DWIDTH 13 0
BBX 10 34 2 0
BITMAP
FE00
FF80
C180
C0C0
C0C0
C0C0
C0C0
C0C0
C0C0
C0C0
C0C0
C0C0
C0C0
C780
CF80
C380
C0C0
C0C0
C0C0
C0C0
C0C0
C0C0
C0C0
C0C0
C0C0
C0C0
C0C0
C0C0
C0C0
C0C0
C0C0
F0C0
F9C0
DF80
ENDCHAR
STARTCHAR 00E0
ENCODING 224
SWIDTH 260 0
DWIDTH 13 0
BBX 12 43 0 0
BITMAP
1800
1C00
0F00
0380
01C0
0040
0000
0000
0FC0
1FE0
3030
3030
3030
3030
3030
3030
3030
3030
3030
3030
3030
3030
3030
3030
3030
3030
3030
3030
FFF0
FFF0
3030
3030
3030
3030
3030
3030
3030
3030
3030
3030
3030
3030
3030
ENDCHAR
STARTCHAR 00E1
ENCODING 225
SWIDTH 260 0
DWIDTH 13 0
BBX 12 43 0 1
BITMAP
0180
0380
0E00
1C00
3800
0000
0000
0000
0FC0
1FE0
3030
3030
3030
3030
3030
3030
3030
3030
3030
3030
3030
3030
3030
3030
3030
3030
3030
3030
FFF0
FFF0
3030
3030
3030
3030
3030
3030
3030
3030
3030
3030
3030
3030
3030
ENDCHAR
STARTCHAR 00E2
ENCODING 226
SWIDTH 260 0
DWIDTH 13 0
BBX 12 41 0 1
BITMAP
0780
1FE0
1860
0000
0000
0000
0FC0
1FE0
3030
3030
3030
3030
3030
3030
3030
3030
3030
3030
3030
3030
3030
3030
3030
3030
3030
3030
FFF0
FFF0
3030
3030
3030
3030
3030
3030
3030
3030
3030
3030
3030
3030
3030
ENDCHAR
STARTCHAR 00E3
ENCODING 227
SWIDTH 260 0
DWIDTH 13 0
BBX 12 41 0 1
BITMAP
0EC0
1BC0
0000
0000
0000
0000
0FC0
1FE0
3030
3030
3030
3030
3030
3030
3030
3030
3030
3030
3030
3030
3030
3030
3030
3030
3030
3030
FFF0
FFF0
3030
3030
3030
3030
3030
3030
3030
3030
3030
3030
3030
3030
3030
ENDCHAR
STARTCHAR 00E4
ENCODING 228
SWIDTH 260 0
DWIDTH 13 0
BBX 12 41 0 1
BITMAP
1CE0
1CE0
1C60
0000
0000
0000
0FC0
1FE0
3030
3030
3030
3030
3030
3030
3030
3030
3030
3030
3030
3030
3030
3030
3030
3030
3030
3030
FFF0
FFF0
3030
3030
3030
3030
3030
3030
3030
3030
3030
3030
3030
3030
3030
ENDCHAR
STARTCHAR 00E5
ENCODING 229
SWIDTH 260 0
DWIDTH 13 0
BBX 12 43 0 0
BITMAP
0300
0FC0
0C40
0CC0
0FC0
0300
0000
0000
0FC0
1FE0
3030
3030
3030
3030
3030
3030
3030
3030
3030
3030
3030
3030
3030
3030
3030
3030
3030
3030
FFF0
FFF0
3030
3030
3030
3030
3030
3030
3030
3030
3030
3030
3030
3030
3030
ENDCHAR
STARTCHAR 00E6
ENCODING 230
SWIDTH 380 0
DWIDTH 19 0
BBX 18 34 1 1
BITMAP
0FFFC0
1FFFC0
306000
306000
306000
306000
306000
306000
306000
306000
306000
306000
306000
306000
306000
306000
306000
306000
306000
FFFF80
FFFFC0
306000
306000
306000
306000
306000
306000
306000
306000
306000
306000
306000
307FC0
307FC0
ENDCHAR
STARTCHAR 00E7
ENCODING 231
SWIDTH 240 0
DWIDTH 12 0
BBX 10 41 1 -7
BITMAP
3F00
7F80
E1C0
C0C0
C0C0
C0C0
C0C0
C0C0
C0C0
C000
C000
C000
C000
C000
C000
C000
C000
C000
C000
C000
C000
C000
C000
C000
C000
C000
C0C0
C0C0
C0C0
C0C0
C0C0
C0C0
E1C0
7F80
3F00
0C00
1E00
0600
0600
3E00
3E00
ENDCHAR
STARTCHAR 00E8
ENCODING 232
SWIDTH 240 0
DWIDTH 12 0
BBX 11 42 0 1
BITMAP
3800
1C00
0F00
0380
0180
0000
0000
0000
3FE0
3FE0
3000
3000
3000
3000
3000
3000
3000
3000
3000
3000
3000
3000
3000
3000
3000
3000
3000
FFE0
FFE0
3000
3000
3000
3000
3000
3000
3000
3000
3000
3000
3000
3FE0
3FE0
ENDCHAR
STARTCHAR 00E9
ENCODING 233
SWIDTH 240 0
DWIDTH 12 0
BBX 11 43 0 1
BITMAP
0180
0700
0E00
1C00
3000
0000
0000
0000
0000
3FE0
3FE0
3000
3000
3000
3000
3000
3000
3000
3000
3000
3000
3000
3000
3000
3000
3000
3000
3000
FFE0
FFE0
3000
3000
3000
3000
3000
3000
3000
3000
3000
3000
3000
3FE0
3FE0
ENDCHAR
STARTCHAR 00EA
ENCODING 234
SWIDTH 240 0
DWIDTH 12 0
BBX 11 41 0 1
BITMAP
0F00
1DC0
30C0
0000
0000
0000
0000
3FE0
3FE0
3000
3000
3000
3000
3000
3000
3000
3000
3000
3000
3000
3000
3000
3000
3000
3000
3000
FFE0
FFE0
3000
3000
3000
3000
3000
3000
3000
3000
3000
3000
3000
3FE0
3FE0
ENDCHAR
STARTCHAR 00EB
ENCODING 235
SWIDTH 240 0
DWIDTH 12 0
BBX 11 41 0 1
BITMAP
1CE0
18C0
0000
0000
0000
0000
0000
3FE0
3FE0
3000
3000
3000
3000
3000
3000
3000
3000
3000
3000
3000
3000
3000
3000
3000
3000
3000
FFE0
FFE0
3000
3000
3000
3000
3000
3000
3000
3000
3000
3000
3000
3FE0
3FE0
ENDCHAR
STARTCHAR 00EC
ENCODING 236
SWIDTH 80 0
DWIDTH 4 0
BBX 6 43 -3 1
BITMAP
C0
E0
70
3C
0C
00
00
00
00
0C
0C
0C
0C
0C
0C
0C
0C
0C
0C
0C
0C
0C
0C
0C
0C
0C
0C
0C
0C
0C
0C
0C
0C
0C
0C
0C
0C
0C
0C
0C
0C
0C
0C
ENDCHAR
STARTCHAR 00ED
ENCODING 237
SWIDTH 80 0
DWIDTH 4 0
BBX 7 43 -1 1
BITMAP
06
1C
38
70
C0
00
00
00
00
30
30
30
30
30
30
30
30
30
30
30
30
30
30
30
30
30
30
30
30
30
30
30
30
30
30
30
30
30
30
30
30
30
30
ENDCHAR
STARTCHAR 00EE
ENCODING 238
SWIDTH 80 0
DWIDTH 4 0
BBX 8 41 -2 1
BITMAP
1C
7F
E3
00
00
00
00
18
18
18
18
18
18
18
18
18
18
18
18
18
18
18
18
18
18
18
18
18
18
18
18
18
18
18
18
18
18
18
18
18
18
ENDCHAR
STARTCHAR 00EF
ENCODING 239
SWIDTH 80 0
DWIDTH 4 0
BBX 8 42 -2 0
BITMAP
63
E7
E3
00
00
00
00
00
18
18
18
18
18
18
18
18
18
18
18
18
18
18
18
18
18
18
18
18
18
18
18
18
18
18
18
18
18
18
18
18
18
18
ENDCHAR
STARTCHAR 00F0
ENCODING 240
SWIDTH 240 0
DWIDTH 12 0
BBX 11 34 0 0
BITMAP
3F80
3FC0
30E0
3060
3060
3060
3060
3060
3060
3060
3060
3060
3060
3060
3060
3060
3060
3060
3060
FE60
FE60
3060
3060
3060
3060
3060
3060
3060
3060
3060
3060
30E0
3FC0
3F80
ENDCHAR
STARTCHAR 00F1
ENCODING 241
SWIDTH 240 0
DWIDTH 12 0
BBX 10 41 1 1
BITMAP
3880
7F80
6780
0000
0000
0000
0F00
FF80
E1C0
C0C0
C0C0
C0C0
C0C0
C0C0
C0C0
C0C0
C0C0
C0C0
C0C0
C0C0
C0C0
C0C0
C0C0
C0C0
C0C0
C0C0
C0C0
C0C0
C0C0
C0C0
C0C0
C0C0
C0C0
C0C0
C0C0
C0C0
C0C0
C0C0
C0C0
C0C0
C0C0
ENDCHAR
STARTCHAR 00F2
ENCODING 242
SWIDTH 240 0
DWIDTH 12 0
BBX 10 43 1 1
BITMAP
6000
7000
1C00
0E00
0700
0000
0000
0000
3E00
7F80
C080
C0C0
C0C0
C0C0
C0C0
C0C0
C0C0
C0C0
C0C0
C0C0
C0C0
C0C0
C0C0
C0C0
C0C0
C0C0
C0C0
C0C0
C0C0
C0C0
C0C0
C0C0
C0C0
C0C0
C0C0
C0C0
C0C0
C0C0
C0C0
C0C0
E1C0
7F80
3F00
ENDCHAR
STARTCHAR 00F3
ENCODING 243
SWIDTH 240 0
DWIDTH 12 0
BBX 10 43 1 1
BITMAP
0600
0E00
3C00
7000
E000
0000
0000
0000
3E00
7F80
C080
C0C0
C0C0
C0C0
C0C0
C0C0
C0C0
C0C0
C0C0
C0C0
C0C0
C0C0
C0C0
C0C0
C0C0
C0C0
C0C0
C0C0
C0C0
C0C0
C0C0
C0C0
C0C0
C0C0
C0C0
C0C0
C0C0
C0C0
C0C0
C0C0
E1C0
7F80
3F00
ENDCHAR
STARTCHAR 00F4
ENCODING 244
SWIDTH 240 0
DWIDTH 12 0
BBX 10 42 1 0
BITMAP
0C00
3F00
7380
0000
0000
0000
0000
3E00
7F80
C080
C0C0
C0C0
C0C0
C0C0
C0C0
C0C0
C0C0
C0C0
C0C0
C0C0
C0C0
C0C0
C0C0
C0C0
C0C0
C0C0
C0C0
C0C0
C0C0
C0C0
C0C0
C0C0
C0C0
C0C0
C0C0
C0C0
C0C0
C0C0
C0C0
E1C0
7F80
3F00
ENDCHAR
STARTCHAR 00F5
ENCODING 245
SWIDTH 240 0
DWIDTH 12 0
BBX 10 41 1 1
BITMAP
7D80
6F80
6700
0000
0000
0000
3E00
7F80
C080
C0C0
C0C0
C0C0
C0C0
C0C0
C0C0
C0C0
C0C0
C0C0
C0C0
C0C0
C0C0
C0C0
C0C0
C0C0
C0C0
C0C0
C0C0
C0C0
C0C0
C0C0
C0C0
C0C0
C0C0
C0C0
C0C0
C0C0
C0C0
C0C0
E1C0
7F80
3F00
ENDCHAR
STARTCHAR 00F6
ENCODING 246
SWIDTH 240 0
DWIDTH 12 0
BBX 10 42 1 0
BITMAP
3380
7380
7380
0000
0000
0000
0000
3E00
7F80
C080
C0C0
C0C0
C0C0
C0C0
C0C0
C0C0
C0C0
C0C0
C0C0
C0C0
C0C0
C0C0
C0C0
C0C0
C0C0
C0C0
C0C0
C0C0
C0C0
C0C0
C0C0
C0C0
C0C0
C0C0
C0C0
C0C0
C0C0
C0C0
C0C0
E1C0
7F80
3F00
ENDCHAR
STARTCHAR 00F7
ENCODING 247
SWIDTH 500 0
DWIDTH 25 0
BBX 23 17 1 3
BITMAP
001000
003800
003800
000000
000000
000000
000000
FFFFFE
FFFFFE
000000
000000
000000
000000
001800
003800
003800
001000
ENDCHAR
STARTCHAR 00F8
ENCODING 248
SWIDTH 240 0
DWIDTH 12 0
BBX 10 35 1 0
BITMAP
3E80
7FC0
E1C0
C1C0
C1C0
C1C0
C3C0
C3C0
C3C0
C3C0
C7C0
C7C0
C6C0
C6C0
C6C0
CEC0
CCC0
CCC0
CCC0
CCC0
D8C0
D8C0
D8C0
D8C0
F8C0
F0C0
F0C0
F0C0
F0C0
E0C0
E0C0
E0C0
E0C0
E180
7F00
ENDCHAR
STARTCHAR 00F9
ENCODING 249
SWIDTH 240 0
DWIDTH 12 0
BBX 9 43 1 0
BITMAP
4000
7000
3800
1E00
0700
0200
0000
0000
0000
C180
C180
C180
C180
C180
C180
C180
C180
C180
C180
C180
C180
C180
C180
C180
C180
C180
C180
C180
C180
C180
C180
C180
C180
C180
C180
C180
C180
C180
C180
C180
E380
7F00
3E00
ENDCHAR
STARTCHAR 00FA
ENCODING 250
SWIDTH 240 0
DWIDTH 12 0
BBX 9 43 1 1
BITMAP
0600
0E00
3800
7000
E000
0000
0000
0000
0000
C180
C180
C180
C180
C180
C180
C180
C180
C180
C180
C180
C180
C180
C180
C180
C180
C180
C180
C180
C180
C180
C180
C180
C180
C180
C180
C180
C180
C180
C180
C180
E380
7F00
3E00
ENDCHAR
STARTCHAR 00FB
ENCODING 251
SWIDTH 240 0
DWIDTH 12 0
BBX 9 42 1 0
BITMAP
0C00
3E00
7380
4000
0000
0000
0000
0000
C180
C180
C180
C180
C180
C180
C180
C180
C180
C180
C180
C180
C180
C180
C180
C180
C180
C180
C180
C180
C180
C180
C180
C180
C180
C180
C180
C180
C180
C180
C180
E380
7F00
3E00
ENDCHAR
STARTCHAR 00FC
ENCODING 252
SWIDTH 240 0
DWIDTH 12 0
BBX 9 42 1 0
BITMAP
7380
7380
7380
0000
0000
0000
0000
0000
C180
C180
C180
C180
C180
C180
C180
C180
C180
C180
C180
C180
C180
C180
C180
C180
C180
C180
C180
C180
C180
C180
C180
C180
C180
C180
C180
C180
C180
C180
C180
E380
7F00
3E00
ENDCHAR
STARTCHAR 00FD
ENCODING 253
SWIDTH 240 0
DWIDTH 12 0
BBX 9 43 1 0
BITMAP
0600
0E00
1C00
7000
E000
C000
0000
0000
0000
C180
C180
C180
C180
C180
C180
C180
C180
C180
C180
C180
C180
C180
C180
C180
C180
C180
C180
6380
7F80
0180
0180
0180
0180
0180
0180
C180
C180
C180
C180
C180
E380
7F00
3E00
ENDCHAR
STARTCHAR 00FE
ENCODING 254
SWIDTH 240 0
DWIDTH 12 0
BBX 11 34 0 0
BITMAP
3000
3000
3000
3000
3000
3000
3F80
3FC0
30C0
3060
3060
3060
3060
3060
3060
3060
3060
3060
3060
3060
3060
3060
3060
3060
3060
30E0
FFC0
FF80
3000
3000
3000
3000
3000
3000
ENDCHAR
STARTCHAR 00FF
ENCODING 255
SWIDTH 240 0
DWIDTH 12 0
BBX 9 42 1 0
BITMAP
0100
7380
7380
0000
0000
0000
0000
0000
C180
C180
C180
C180
C180
C180
C180
C180
C180
C180
C180
C180
C180
C180
C180
C180
C180
C180
6380
7F80
0180
0180
0180
0180
0180
0180
C180
C180
C180
C180
C180
E380
7F00
3E00
ENDCHAR
STARTCHAR 0131
ENCODING 305
SWIDTH 80 0
DWIDTH 4 0
BBX 2 34 1 0
BITMAP
C0
C0
C0
C0
C0
C0
C0
C0
C0
C0
C0
C0
C0
C0
C0
C0
C0
C0
C0
C0
C0
C0
C0
C0
C0
C0
C0
C0
C0
C0
C0
C0
C0
C0
ENDCHAR
STARTCHAR 0141
ENCODING 321
SWIDTH 220 0
DWIDTH 11 0
BBX 11 34 0 0
BITMAP
3000
3000
3000
3000
3000
3000
3000
3000
3000
3000
3000
3000
3000
3000
3000
3700
3E00
3C00
3800
7000
F000
F000
3000
3000
3000
3000
3000
3000
3000
3000
3000
3000
3FE0
3FE0
ENDCHAR
STARTCHAR 0142
ENCODING 322
SWIDTH 220 0
DWIDTH 11 0
BBX 11 34 0 0
BITMAP
3000
3000
3000
3000
3000
3000
3000
3000
3000
3000
3000
3000
3000
3000
3000
3700
3E00
3C00
3800
7000
F000
F000
3000
3000
3000
3000
3000
3000
3000
3000
3000
3000
3FE0
3FE0
ENDCHAR
STARTCHAR 0152
ENCODING 338
SWIDTH 340 0
DWIDTH 17 0
BBX 16 35 1 0
BITMAP
3E00
7FFF
E3FF
C180
C180
C180
C180
C180
C180
C180
C180
C180
C180
C180
C180
C180
C180
C180
C180
C180
C7FF
C7FF
C180
C180
C180
C180
C180
C180
C180
C180
C180
C180
E380
7FFF
3FFF
ENDCHAR
STARTCHAR 0153
ENCODING 339
SWIDTH 360 0
DWIDTH 18 0
BBX 16 35 1 0
BITMAP
3E00
7FFF
E3FF
C180
C180
C180
C180
C180
C180
C180
C180
C180
C180
C180
C180
C180
C180
C180
C180
C180
C7FF
C7FF
C180
C180
C180
C180
C180
C180
C180
C180
C180
C180
E380
7FFF
3FFF
ENDCHAR
STARTCHAR 0160
ENCODING 352
SWIDTH 240 0
DWIDTH 12 0
BBX 10 41 1 1
BITMAP
7380
3F00
0C00
0000
0000
0000
3E00
7F80
E180
C0C0
C0C0
C0C0
C0C0
C0C0
C000
C000
C000
C000
C000
C000
C000
C000
C000
C000
E000
7C00
3F80
0380
00C0
00C0
00C0
00C0
C0C0
C0C0
C0C0
C0C0
C0C0
C0C0
E1C0
7F80
3F00
ENDCHAR
STARTCHAR 0161
ENCODING 353
SWIDTH 240 0
DWIDTH 12 0
BBX 10 41 1 1
BITMAP
6380
3F00
1C00
0000
0000
0000
3E00
7F80
E180
C0C0
C0C0
C0C0
C0C0
C0C0
C000
C000
C000
C000
C000
C000
C000
C000
C000
C000
E000
7C00
3F80
0380
00C0
00C0
00C0
00C0
C0C0
C0C0
C0C0
C0C0
C0C0
C0C0
E1C0
7F80
3F00
ENDCHAR
STARTCHAR 0178
ENCODING 376
SWIDTH 240 0
DWIDTH 12 0
BBX 9 42 1 0
BITMAP
0200
E700
F700
6200
0000
0000
0000
0000
C180
C180
C180
C180
C180
C180
C180
C180
C180
C180
C180
C180
C180
C180
C180
C180
C180
C180
6380
7F80
0180
0180
0180
0180
0180
0180
C180
C180
C180
C180
C180
E380
7F00
3E00
ENDCHAR
STARTCHAR 017D
ENCODING 381
SWIDTH 200 0
DWIDTH 10 0
BBX 9 42 0 0
BITMAP
0080
7B80
1F00
0C00
0000
0000
0000
0000
FF00
FF80
0180
0300
0300
0300
0300
0700
0600
0600
0600
0600
0C00
0C00
0C00
0C00
0C00
1800
1800
1800
1800
1800
3000
3000
3000
3000
7000
6000
6000
6000
6000
C000
FF80
7F80
ENDCHAR
STARTCHAR 017E
ENCODING 382
SWIDTH 200 0
DWIDTH 10 0
BBX 9 42 0 0
BITMAP
0080
7380
1F00
0C00
0000
0000
0000
0000
FF00
FF80
0180
0300
0300
0300
0300
0700
0600
0600
0600
0600
0C00
0C00
0C00
0C00
0C00
1800
1800
1800
1800
1800
3000
3000
3000
3000
7000
6000
6000
6000
6000
C000
FF80
7F80
ENDCHAR
STARTCHAR 0192
ENCODING 402
SWIDTH 240 0
DWIDTH 12 0
BBX 12 35 0 0
BITMAP
03C0
07E0
0630
0C30
0C30
0C30
0C30
0C20
0800
1800
1800
1800
1800
1800
1800
1800
3800
3000
3000
3000
FF80
FF80
3000
3000
7000
7000
6000
6000
6000
6000
6000
6000
6000
6000
4000
ENDCHAR
STARTCHAR 02BA
ENCODING 698
SWIDTH 220 0
DWIDTH 11 0
BBX 11 6 3 36
BITMAP
0660
0EE0
3FC0
7700
EE00
0800
ENDCHAR
STARTCHAR 02C6
ENCODING 710
SWIDTH 220 0
DWIDTH 11 0
BBX 8 4 2 36
BITMAP
18
7E
E7
80
ENDCHAR
STARTCHAR 02C7
ENCODING 711
SWIDTH 220 0
DWIDTH 11 0
BBX 8 3 2 36
BITMAP
C3
FF
3C
ENDCHAR
STARTCHAR 02D8
ENCODING 728
SWIDTH 220 0
DWIDTH 11 0
BBX 6 3 4 36
BITMAP
84
CC
F8
ENDCHAR
STARTCHAR 02DA
ENCODING 730
SWIDTH 220 0
DWIDTH 11 0
BBX 7 7 3 36
BITMAP
78
FC
C6
C6
CE
7C
10
ENDCHAR
STARTCHAR 02DC
ENCODING 732
SWIDTH 220 0
DWIDTH 11 0
BBX 8 4 2 36
BITMAP
73
FB
CF
04
ENDCHAR
STARTCHAR 2013
ENCODING 8211
SWIDTH 240 0
DWIDTH 12 0
BBX 9 2 2 13
BITMAP
FF80
FF80
ENDCHAR
STARTCHAR 2014
ENCODING 8212
SWIDTH 500 0
DWIDTH 25 0
BBX 23 2 1 13
BITMAP
FFFFFE
FFFFFE
ENDCHAR
STARTCHAR 2018
ENCODING 8216
SWIDTH 140 0
DWIDTH 7 0
BBX 5 8 1 26
BITMAP
C0
E0
60
70
30
38
18
18
ENDCHAR
STARTCHAR 2019
ENCODING 8217
SWIDTH 140 0
DWIDTH 7 0
BBX 5 8 1 26
BITMAP
18
38
30
70
60
E0
C0
C0
ENDCHAR
STARTCHAR 201A
ENCODING 8218
SWIDTH 140 0
DWIDTH 7 0
BBX 5 9 1 -2
BITMAP
18
38
38
30
70
60
E0
C0
C0
ENDCHAR
STARTCHAR 201C
ENCODING 8220
SWIDTH 200 0
DWIDTH 10 0
BBX 8 8 1 26
BITMAP
C8
CC
6C
6E
76
37
3B
13
ENDCHAR
STARTCHAR 201D
ENCODING 8221
SWIDTH 200 0
DWIDTH 10 0
BBX 8 8 1 26
BITMAP
13
33
36
76
6E
EC
DC
88
ENDCHAR
STARTCHAR 201E
ENCODING 8222
SWIDTH 240 0
DWIDTH 12 0
BBX 8 8 1 -1
BITMAP
1B
3B
36
76
6E
6C
DC
D8
ENDCHAR
STARTCHAR 2020
ENCODING 8224
SWIDTH 240 0
DWIDTH 12 0
BBX 10 34 1 0
BITMAP
0C00
0C00
0C00
0C00
0C00
0C00
FFC0
FFC0
0C00
0C00
0C00
0C00
0C00
0C00
0C00
0C00
0C00
0C00
0C00
0C00
0C00
0C00
0C00
0C00
0C00
0C00
0C00
0C00
0C00
0C00
0C00
0C00
0C00
0C00
ENDCHAR
STARTCHAR 2021
ENCODING 8225
SWIDTH 240 0
DWIDTH 12 0
BBX 10 34 1 0
BITMAP
0C00
0C00
0C00
0C00
0C00
0C00
FFC0
FFC0
0C00
0C00
0C00
0C00
0C00
0C00
0C00
0C00
0C00
0C00
0C00
0C00
0C00
0C00
0C00
0C00
0C00
0C00
FFC0
FFC0
0C00
0C00
0C00
0C00
0C00
0C00
ENDCHAR
STARTCHAR 2022
ENCODING 8226
SWIDTH 380 0
DWIDTH 19 0
BBX 12 11 3 12
BITMAP
1F80
3FC0
7FE0
FFF0
FFF0
FFF0
FFF0
FFF0
7FE0
3FC0
0F80
ENDCHAR
STARTCHAR 2026
ENCODING 8230
SWIDTH 320 0
DWIDTH 16 0
BBX 14 3 1 0
BITMAP
E31C
E79C
E31C
ENDCHAR
STARTCHAR 2030
ENCODING 8240
SWIDTH 680 0
DWIDTH 34 0
BBX 27 35 3 0
BITMAP
780C0000
CC0C0000
CC0C0000
CC0C0000
CC180000
CC180000
CC180000
CC180000
CC100000
CC300000
CC300000
CC300000
CC300000
CC600000
CC61C1C0
CC67E7E0
CC666660
CC666660
CCC66660
FCC66660
78C66660
00C66660
00866660
01866660
01866660
01866660
01866660
03066660
03066660
03066660
03066660
03066660
06066660
06066660
0603C3C0
ENDCHAR
STARTCHAR 2039
ENCODING 8249
SWIDTH 180 0
DWIDTH 9 0
BBX 5 17 2 2
BITMAP
18
18
30
30
70
60
60
E0
C0
C0
60
60
70
30
30
38
18
ENDCHAR
STARTCHAR 203A
ENCODING 8250
SWIDTH 180 0
DWIDTH 9 0
BBX 5 17 2 2
BITMAP
C0
C0
60
60
70
30
30
18
18
18
30
30
70
60
60
E0
C0
ENDCHAR
STARTCHAR 2122
ENCODING 8482
SWIDTH 260 0
DWIDTH 13 0
BBX 11 13 1 21
BITMAP
FFC0
4920
4920
4920
4920
4920
4920
4920
4920
4920
4920
4920
4920
ENDCHAR
STARTCHAR 2215
ENCODING 8725
SWIDTH 200 0
DWIDTH 10 0
BBX 8 35 1 0
BITMAP
03
03
03
03
02
06
06
06
06
04
04
0C
0C
0C
08
08
18
18
18
18
10
30
30
30
30
20
60
60
60
60
40
C0
C0
C0
80
ENDCHAR
STARTCHAR 2219
ENCODING 8729
SWIDTH 240 0
DWIDTH 12 0
BBX 4 4 4 13
BITMAP
60
F0
F0
F0
ENDCHAR
ENDFONT
